<?xml version="1.0" encoding="UTF-8"?>
<!DOCTYPE svg PUBLIC "-//W3C//DTD SVG 1.1//EN" "http://www.w3.org/Graphics/SVG/1.1/DTD/svg11.dtd">
<svg xmlns="http://www.w3.org/2000/svg" version="1.1" width="198px" height="96px" style="shape-rendering:geometricPrecision; text-rendering:geometricPrecision; image-rendering:optimizeQuality; fill-rule:evenodd; clip-rule:evenodd" xmlns:xlink="http://www.w3.org/1999/xlink">
<g><path style="opacity:1" fill="#767581" d="M 67.5,4.5 C 88.6733,4.16941 109.673,4.50274 130.5,5.5C 109.833,5.5 89.1667,5.5 68.5,5.5C 66.648,6.51976 65.3147,8.01976 64.5,10C 67.6831,17.599 71.0164,25.099 74.5,32.5C 74.5,33.1667 74.1667,33.5 73.5,33.5C 69.839,26.1967 66.1723,18.8634 62.5,11.5C 60.9547,10.5481 59.288,10.2148 57.5,10.5C 56.5024,34.6609 56.169,58.9943 56.5,83.5C 55.5022,57.672 55.1689,31.672 55.5,5.5C 57.3623,8.3301 60.0289,9.16343 63.5,8C 64.7051,6.62439 66.0384,5.45773 67.5,4.5 Z"/></g>
<g><path style="opacity:1" fill="#55586f" d="M 53.5,3.5 C 51.5636,7.71474 50.8969,12.3814 51.5,17.5C 46.9546,15.2696 42.2879,15.2696 37.5,17.5C 37.1667,17.5 36.8333,17.5 36.5,17.5C 35.596,16.791 35.2627,15.791 35.5,14.5C 35.665,11.1501 35.4983,7.81677 35,4.5C 34.3292,5.25244 33.4959,5.58577 32.5,5.5C 32.9528,4.54163 33.6195,3.7083 34.5,3C 41.0137,2.18003 47.3471,2.3467 53.5,3.5 Z"/></g>
<g><path style="opacity:1" fill="#e9e5f1" d="M 68.5,5.5 C 89.1667,5.5 109.833,5.5 130.5,5.5C 131.167,5.5 131.5,5.83333 131.5,6.5C 110.764,7.17201 89.9311,7.83868 69,8.5C 68.5172,7.55198 68.3505,6.55198 68.5,5.5 Z"/></g>
<g><path style="opacity:1" fill="#38394f" d="M 35.5,14.5 C 34.5041,14.5858 33.6708,14.2524 33,13.5C 32.7679,14.7375 32.2679,15.7375 31.5,16.5C 31.5,13.5 31.5,10.5 31.5,7.5C 31.3284,6.50838 31.6618,5.84171 32.5,5.5C 33.4959,5.58577 34.3292,5.25244 35,4.5C 35.4983,7.81677 35.665,11.1501 35.5,14.5 Z"/></g>
<g><path style="opacity:1" fill="#d4d3dc" d="M 68.5,5.5 C 68.3505,6.55198 68.5172,7.55198 69,8.5C 89.9311,7.83868 110.764,7.17201 131.5,6.5C 133.022,7.19095 134.022,8.35762 134.5,10C 130.985,18.3128 127.318,26.4794 123.5,34.5C 123.5,33.1667 123.5,31.8333 123.5,30.5C 123.5,30.1667 123.5,29.8333 123.5,29.5C 124.793,25.0963 126.459,20.763 128.5,16.5C 109.845,15.5004 91.1786,15.1671 72.5,15.5C 73.9577,21.4529 75.291,27.4529 76.5,33.5C 75.8333,33.1667 75.1667,32.8333 74.5,32.5C 71.0164,25.099 67.6831,17.599 64.5,10C 65.3147,8.01976 66.648,6.51976 68.5,5.5 Z"/></g>
<g><path style="opacity:1" fill="#98969f" d="M 143.5,7.5 C 143.831,33.0055 143.498,58.3388 142.5,83.5C 142.5,77.8333 142.5,72.1667 142.5,66.5C 142.5,47.8333 142.5,29.1667 142.5,10.5C 140.5,10.5 138.5,10.5 136.5,10.5C 134.952,15.3746 132.952,20.0412 130.5,24.5C 128.955,28.5932 127.121,32.5932 125,36.5C 123.786,38.0488 122.286,39.2155 120.5,40C 106.5,40.6667 92.5,40.6667 78.5,40C 77.2949,38.6244 75.9616,37.4577 74.5,36.5C 74.4431,35.391 74.1098,34.391 73.5,33.5C 74.1667,33.5 74.5,33.1667 74.5,32.5C 75.1667,32.8333 75.8333,33.1667 76.5,33.5C 76.3601,35.1238 77.0267,36.2904 78.5,37C 92.8333,37.6667 107.167,37.6667 121.5,37C 122.381,36.2917 123.047,35.4584 123.5,34.5C 127.318,26.4794 130.985,18.3128 134.5,10C 134.022,8.35762 133.022,7.19095 131.5,6.5C 131.5,5.83333 131.167,5.5 130.5,5.5C 109.673,4.50274 88.6733,4.16941 67.5,4.5C 73.9992,3.6715 80.6659,3.00483 87.5,2.5C 102.152,3.26635 116.819,3.76635 131.5,4C 133.455,4.9533 135.122,6.28663 136.5,8C 138.929,8.70331 141.262,8.53664 143.5,7.5 Z"/></g>
<g><path style="opacity:1" fill="#35364f" d="M 53.5,3.5 C 54.5,3.83333 55.1667,4.5 55.5,5.5C 55.1689,31.672 55.5022,57.672 56.5,83.5C 55.962,85.1172 55.6287,86.7839 55.5,88.5C 54.7101,89.7942 53.7101,90.9609 52.5,92C 46.6513,92.8184 40.9846,92.6517 35.5,91.5C 36.6491,91.2089 37.3158,90.3756 37.5,89C 36.4935,84.8497 36.4935,80.6831 37.5,76.5C 37.8333,76.5 38.1667,76.5 38.5,76.5C 41.6359,75.166 44.8026,74.8327 48,75.5C 49.2613,75.2409 50.2613,74.5742 51,73.5C 51.4995,67.1754 51.6662,60.8421 51.5,54.5C 51.5,47.1667 51.5,39.8333 51.5,32.5C 51.5,27.5 51.5,22.5 51.5,17.5C 50.8969,12.3814 51.5636,7.71474 53.5,3.5 Z"/></g>
<g><path style="opacity:1" fill="#edecf2" d="M 123.5,29.5 C 121.847,28.3955 120.18,28.2288 118.5,29C 120.007,28.1627 120.507,26.9961 120,25.5C 107,26.8333 94,26.8333 81,25.5C 80.6667,26.8333 80.3333,28.1667 80,29.5C 79.1107,28.1118 78.6107,28.2785 78.5,30C 79.4239,31.15 79.4239,32.15 78.5,33C 79.8333,36.3333 81.1667,36.3333 82.5,33C 94.4767,31.2005 106.477,31.0338 118.5,32.5C 118.5,33.5 118.5,34.5 118.5,35.5C 119.552,35.6495 120.552,35.4828 121.5,35C 121.167,34.6667 120.833,34.3333 120.5,34C 121.636,32.8549 122.636,31.6883 123.5,30.5C 123.5,31.8333 123.5,33.1667 123.5,34.5C 123.047,35.4584 122.381,36.2917 121.5,37C 107.167,37.6667 92.8333,37.6667 78.5,37C 77.0267,36.2904 76.3601,35.1238 76.5,33.5C 75.291,27.4529 73.9577,21.4529 72.5,15.5C 91.1786,15.1671 109.845,15.5004 128.5,16.5C 126.459,20.763 124.793,25.0963 123.5,29.5 Z"/></g>
<g><path style="opacity:1" fill="#e7eef3" d="M 177.5,11.5 C 181.876,13.5775 184.876,16.9108 186.5,21.5C 186.5,26.1667 186.5,30.8333 186.5,35.5C 183.843,35.838 181.51,35.1713 179.5,33.5C 178.817,40.7231 178.151,47.8898 177.5,55C 178.313,56.3139 179.313,57.4805 180.5,58.5C 180.154,59.6956 179.654,59.6956 179,58.5C 178.333,61.1667 178.333,63.8333 179,66.5C 179.383,67.056 179.883,67.3893 180.5,67.5C 179.737,68.2679 178.737,68.7679 177.5,69C 180.779,72.7974 181.112,76.9641 178.5,81.5C 177.5,81.5 176.5,81.5 175.5,81.5C 175.333,59.8308 175.5,38.1641 176,16.5C 178.683,15.1073 178.85,13.7739 176.5,12.5C 176.624,11.8933 176.957,11.56 177.5,11.5 Z"/></g>
<g><path style="opacity:1" fill="#bbdce8" d="M 27.5,10.5 C 28.5,10.5 29.5,10.5 30.5,10.5C 30.5,12.8333 30.5,15.1667 30.5,17.5C 30.5,29.8333 30.5,42.1667 30.5,54.5C 29.5,54.5 28.5,54.5 27.5,54.5C 27.5,39.8333 27.5,25.1667 27.5,10.5 Z"/></g>
<g><path style="opacity:1" fill="#e6e5eb" d="M 57.5,10.5 C 59.288,10.2148 60.9547,10.5481 62.5,11.5C 66.1723,18.8634 69.839,26.1967 73.5,33.5C 74.1098,34.391 74.4431,35.391 74.5,36.5C 70.1507,35.0068 67.6507,32.3402 67,28.5C 66.0862,29.6537 65.2529,29.487 64.5,28C 66.158,27.2747 66.658,26.108 66,24.5C 64.6861,25.3128 63.5195,26.3128 62.5,27.5C 61.2638,26.7542 59.9305,26.4208 58.5,26.5C 58.2865,24.8561 58.6198,23.3561 59.5,22C 58.9558,21.2828 58.2891,20.7828 57.5,20.5C 57.5,17.1667 57.5,13.8333 57.5,10.5 Z"/></g>
<g><path style="opacity:1" fill="#6c6f85" d="M 51.5,17.5 C 51.5,22.5 51.5,27.5 51.5,32.5C 48.9009,32.5494 46.7342,33.5494 45,35.5C 42.4553,33.9407 40.2887,32.6073 38.5,31.5C 39.3932,29.2814 39.0599,27.1147 37.5,25C 38.2322,22.637 38.2322,20.137 37.5,17.5C 42.2879,15.2696 46.9546,15.2696 51.5,17.5 Z"/></g>
<g><path style="opacity:1" fill="#35387c" d="M 168.5,59.5 C 168.5,63.8333 168.5,68.1667 168.5,72.5C 167.517,76.2984 167.183,80.2984 167.5,84.5C 169.735,84.7947 171.735,84.4614 173.5,83.5C 173.833,83.5 174.167,83.5 174.5,83.5C 174.5,84.1667 174.5,84.8333 174.5,85.5C 172.833,85.5 171.167,85.5 169.5,85.5C 168.178,85.67 167.011,85.3366 166,84.5C 165.418,78.9847 165.584,73.4847 166.5,68C 163.91,52.8347 163.91,37.6681 166.5,22.5C 167.167,34.9934 167.833,47.3268 168.5,59.5 Z"/></g>
<g><path style="opacity:1" fill="#adb3cd" d="M 24.5,10.5 C 25.4682,12.6074 25.8016,14.9407 25.5,17.5C 25.5,39.5 25.5,61.5 25.5,83.5C 24.209,83.7373 23.209,83.404 22.5,82.5C 24.3079,81.0821 24.9746,79.0821 24.5,76.5C 24.5,72.8333 24.5,69.1667 24.5,65.5C 24.5,47.1667 24.5,28.8333 24.5,10.5 Z"/></g>
<g><path style="opacity:1" fill="#86828f" d="M 168.5,8.5 C 171.85,8.33499 175.183,8.50166 178.5,9C 181.295,10.7932 183.795,12.9598 186,15.5C 189.1,21.9637 191.266,28.6303 192.5,35.5C 192.833,43.2576 192.499,50.2576 191.5,56.5C 191.775,48.4467 191.275,40.4467 190,32.5C 189.5,41.4938 189.334,50.4938 189.5,59.5C 189.448,61.9029 189.781,64.2362 190.5,66.5C 188.714,75.9429 183.381,82.2763 174.5,85.5C 174.5,84.8333 174.5,84.1667 174.5,83.5C 176.38,83.7709 177.713,83.1042 178.5,81.5C 182.742,79.0614 185.575,75.3947 187,70.5C 187.828,53.9948 187.662,37.6615 186.5,21.5C 184.876,16.9108 181.876,13.5775 177.5,11.5C 176.791,10.596 175.791,10.2627 174.5,10.5C 174.5,12.8333 174.5,15.1667 174.5,17.5C 173.833,15.1667 173.167,12.8333 172.5,10.5C 171.5,10.5 170.5,10.5 169.5,10.5C 169.167,10.5 168.833,10.5 168.5,10.5C 168.5,9.83333 168.5,9.16667 168.5,8.5 Z"/></g>
<g><path style="opacity:1" fill="#e7e8f1" d="M 24.5,10.5 C 24.5,28.8333 24.5,47.1667 24.5,65.5C 23.8333,49.6616 23.1667,33.6616 22.5,17.5C 21.2098,22.5929 20.7098,27.5929 21,32.5C 20.3109,33.3567 19.4776,34.0233 18.5,34.5C 17.8573,29.858 17.3573,24.858 17,19.5C 15.8037,24.8651 15.6371,30.1985 16.5,35.5C 15.0413,35.4326 13.7079,35.7659 12.5,36.5C 12.5,31.8333 12.5,27.1667 12.5,22.5C 14.3021,16.1731 18.3021,12.1731 24.5,10.5 Z"/></g>
<g><path style="opacity:1" fill="#696e9d" d="M 36.5,17.5 C 36.8333,17.5 37.1667,17.5 37.5,17.5C 38.2322,20.137 38.2322,22.637 37.5,25C 39.0599,27.1147 39.3932,29.2814 38.5,31.5C 38.7678,33.099 38.4345,34.4324 37.5,35.5C 37.1667,35.5 36.8333,35.5 36.5,35.5C 36.5,29.5 36.5,23.5 36.5,17.5 Z"/></g>
<g><path style="opacity:1" fill="#f6f6f7" d="M 121.5,54.5 C 122.043,54.44 122.376,54.1067 122.5,53.5C 120.333,53.1667 118.167,52.8333 116,52.5C 112.677,53.0114 109.51,53.0114 106.5,52.5C 104.971,52.5288 103.804,53.1955 103,54.5C 102.601,54.2716 102.435,53.9382 102.5,53.5C 99.3601,52.3592 96.0267,52.1925 92.5,53C 93.6956,53.6543 93.6956,54.1543 92.5,54.5C 91.7492,53.624 91.2492,52.624 91,51.5C 90.3457,52.6956 89.8457,52.6956 89.5,51.5C 90.7537,49.3569 90.7537,47.3569 89.5,45.5C 86.2984,45.5367 84.6317,47.2033 84.5,50.5C 82.9724,49.1979 81.9724,47.5313 81.5,45.5C 80.6522,44.375 79.6522,44.375 78.5,45.5C 77.7063,49.3577 77.0397,53.3577 76.5,57.5C 76.5,58.1667 76.5,58.8333 76.5,59.5C 75.71,60.6085 75.21,61.9419 75,63.5C 74.6667,62.8333 74.3333,62.1667 74,61.5C 73.1822,66.7937 72.6822,66.7937 72.5,61.5C 69.4816,61.6646 66.4816,61.498 63.5,61C 63,60.5 62.5,60 62,59.5C 61.3162,60.7839 61.4829,61.9505 62.5,63C 61,63.8333 59.8333,65 59,66.5C 58.7216,65.5842 58.2216,64.9175 57.5,64.5C 57.5,49.8333 57.5,35.1667 57.5,20.5C 58.2891,20.7828 58.9558,21.2828 59.5,22C 58.6198,23.3561 58.2865,24.8561 58.5,26.5C 59.9305,26.4208 61.2638,26.7542 62.5,27.5C 63.5195,26.3128 64.6861,25.3128 66,24.5C 66.658,26.108 66.158,27.2747 64.5,28C 65.2529,29.487 66.0862,29.6537 67,28.5C 67.6507,32.3402 70.1507,35.0068 74.5,36.5C 75.9616,37.4577 77.2949,38.6244 78.5,40C 92.5,40.6667 106.5,40.6667 120.5,40C 122.286,39.2155 123.786,38.0488 125,36.5C 127.121,32.5932 128.955,28.5932 130.5,24.5C 132.614,23.0929 134.114,21.0929 135,18.5C 137.075,19.8952 138.908,19.5619 140.5,17.5C 141.666,33.4896 141.833,49.4896 141,65.5C 139.113,63.9739 138.113,61.9739 138,59.5C 137.5,60 137,60.5 136.5,61C 132.122,61.8515 127.788,62.5181 123.5,63C 124.167,62.6667 124.833,62.3333 125.5,62C 124.333,61.5 123.5,60.6667 123,59.5C 122.667,59.8333 122.333,60.1667 122,60.5C 121.505,58.5273 121.338,56.5273 121.5,54.5 Z"/></g>
<g><path style="opacity:1" fill="#f3f3f3" d="M 123.5,29.5 C 123.5,29.8333 123.5,30.1667 123.5,30.5C 122.636,31.6883 121.636,32.8549 120.5,34C 120.833,34.3333 121.167,34.6667 121.5,35C 120.552,35.4828 119.552,35.6495 118.5,35.5C 118.5,34.5 118.5,33.5 118.5,32.5C 106.477,31.0338 94.4767,31.2005 82.5,33C 81.1667,36.3333 79.8333,36.3333 78.5,33C 79.4239,32.15 79.4239,31.15 78.5,30C 78.6107,28.2785 79.1107,28.1118 80,29.5C 80.3333,28.1667 80.6667,26.8333 81,25.5C 94,26.8333 107,26.8333 120,25.5C 120.507,26.9961 120.007,28.1627 118.5,29C 120.18,28.2288 121.847,28.3955 123.5,29.5 Z"/></g>
<g><path style="opacity:1" fill="#f6f7f8" d="M 186.5,35.5 C 186.5,45.5 186.5,55.5 186.5,65.5C 184.142,65.2525 182.142,65.9192 180.5,67.5C 179.883,67.3893 179.383,67.056 179,66.5C 178.333,63.8333 178.333,61.1667 179,58.5C 179.654,59.6956 180.154,59.6956 180.5,58.5C 179.313,57.4805 178.313,56.3139 177.5,55C 178.151,47.8898 178.817,40.7231 179.5,33.5C 181.51,35.1713 183.843,35.838 186.5,35.5 Z"/></g>
<g><path style="opacity:1" fill="#afacb4" d="M 12.5,22.5 C 12.5,27.1667 12.5,31.8333 12.5,36.5C 12.5,42.1667 12.5,47.8333 12.5,53.5C 11.9984,60.6819 12.665,67.6819 14.5,74.5C 13.6618,74.8417 13.3284,75.5084 13.5,76.5C 11.9925,74.8185 10.9925,72.8185 10.5,70.5C 11.1667,54.5 11.8333,38.5 12.5,22.5 Z"/></g>
<g><path style="opacity:1" fill="#d9dbe3" d="M 186.5,21.5 C 187.662,37.6615 187.828,53.9948 187,70.5C 185.575,75.3947 182.742,79.0614 178.5,81.5C 181.112,76.9641 180.779,72.7974 177.5,69C 178.737,68.7679 179.737,68.2679 180.5,67.5C 182.142,65.9192 184.142,65.2525 186.5,65.5C 186.5,55.5 186.5,45.5 186.5,35.5C 186.5,30.8333 186.5,26.1667 186.5,21.5 Z"/></g>
<g><path style="opacity:1" fill="#575b73" d="M 168.5,8.5 C 168.5,9.16667 168.5,9.83333 168.5,10.5C 168.5,14.1667 168.5,17.8333 168.5,21.5C 167.662,21.1583 167.328,20.4916 167.5,19.5C 167.666,15.1539 167.499,10.8206 167,6.5C 166.586,6.04265 166.086,5.70931 165.5,5.5C 164.505,10.7921 164.172,16.1254 164.5,21.5C 164.815,25.3714 164.482,29.0381 163.5,32.5C 162.833,39.5 162.167,46.5 161.5,53.5C 160.677,50.023 160.177,46.3563 160,42.5C 159.626,43.4162 159.126,44.2496 158.5,45C 156.925,44.621 155.425,44.7877 154,45.5C 152.956,44.3774 152.29,43.0441 152,41.5C 151.781,42.938 151.281,44.2713 150.5,45.5C 149.833,42.0227 149.166,38.6893 148.5,35.5C 147.6,25.1985 147.267,14.8652 147.5,4.5C 146.5,4.5 145.5,4.5 144.5,4.5C 144.611,3.88258 144.944,3.38258 145.5,3C 152.167,2.33333 158.833,2.33333 165.5,3C 167.607,4.26351 168.607,6.09685 168.5,8.5 Z"/></g>
<g><path style="opacity:1" fill="#707286" d="M 151.5,17.5 C 154.573,18.199 157.573,19.199 160.5,20.5C 161.086,20.2907 161.586,19.9574 162,19.5C 162.928,24.0204 162.595,28.3537 161,32.5C 160.667,31.8333 160.333,31.1667 160,30.5C 156.545,31.7914 153.045,31.7914 149.5,30.5C 148.567,26.5705 148.234,22.5705 148.5,18.5C 149.791,18.7373 150.791,18.404 151.5,17.5 Z"/></g>
<g><path style="opacity:1" fill="#303349" d="M 167.5,19.5 C 166.5,20.1667 165.5,20.8333 164.5,21.5C 164.172,16.1254 164.505,10.7921 165.5,5.5C 166.086,5.70931 166.586,6.04265 167,6.5C 167.499,10.8206 167.666,15.1539 167.5,19.5 Z"/></g>
<g><path style="opacity:1" fill="#817f8a" d="M 31.5,7.5 C 31.5,10.5 31.5,13.5 31.5,16.5C 31.5,16.8333 31.5,17.1667 31.5,17.5C 31.1667,17.5 30.8333,17.5 30.5,17.5C 30.5,15.1667 30.5,12.8333 30.5,10.5C 29.5,10.5 28.5,10.5 27.5,10.5C 26.5318,12.6074 26.1984,14.9407 26.5,17.5C 26.1667,17.5 25.8333,17.5 25.5,17.5C 25.8016,14.9407 25.4682,12.6074 24.5,10.5C 18.3021,12.1731 14.3021,16.1731 12.5,22.5C 11.8333,38.5 11.1667,54.5 10.5,70.5C 4.70138,52.2348 5.53471,34.2348 13,16.5C 15.5,14 18,11.5 20.5,9C 24.2519,8.75992 27.9186,8.25992 31.5,7.5 Z"/></g>
<g><path style="opacity:1" fill="#d3d0da" d="M 9.5,29.5 C 10.6597,41.3262 10.8263,53.3262 10,65.5C 8.19225,53.5237 8.02559,41.5237 9.5,29.5 Z"/></g>
<g><path style="opacity:1" fill="#4f5381" d="M 36.5,35.5 C 36.8333,35.5 37.1667,35.5 37.5,35.5C 38.2735,40.4762 38.9402,45.4762 39.5,50.5C 39.5509,53.6723 38.8842,56.6723 37.5,59.5C 39.1526,61.9784 38.8193,63.9784 36.5,65.5C 36.5,55.5 36.5,45.5 36.5,35.5 Z"/></g>
<g><path style="opacity:1" fill="#4d4f68" d="M 148.5,35.5 C 149.166,38.6893 149.833,42.0227 150.5,45.5C 151.281,44.2713 151.781,42.938 152,41.5C 152.29,43.0441 152.956,44.3774 154,45.5C 155.425,44.7877 156.925,44.621 158.5,45C 159.126,44.2496 159.626,43.4162 160,42.5C 160.177,46.3563 160.677,50.023 161.5,53.5C 160.759,58.6496 160.426,63.6496 160.5,68.5C 160.179,66.9519 159.179,66.2852 157.5,66.5C 157.5,65.5 157.5,64.5 157.5,63.5C 154.167,63.0268 152,64.3601 151,67.5C 150.302,64.9963 149.469,62.663 148.5,60.5C 148.5,52.1667 148.5,43.8333 148.5,35.5 Z"/></g>
<g><path style="opacity:1" fill="#d2ccd7" d="M 191.5,56.5 C 190.833,57.5 190.167,58.5 189.5,59.5C 189.334,50.4938 189.5,41.4938 190,32.5C 191.275,40.4467 191.775,48.4467 191.5,56.5 Z"/></g>
<g><path style="opacity:1" fill="#a9a4af" d="M 192.5,35.5 C 193.843,45.371 193.676,55.371 192,65.5C 191.617,66.056 191.117,66.3893 190.5,66.5C 189.781,64.2362 189.448,61.9029 189.5,59.5C 190.167,58.5 190.833,57.5 191.5,56.5C 192.499,50.2576 192.833,43.2576 192.5,35.5 Z"/></g>
<g><path style="opacity:1" fill="#4d506b" d="M 38.5,31.5 C 40.2887,32.6073 42.4553,33.9407 45,35.5C 46.7342,33.5494 48.9009,32.5494 51.5,32.5C 51.5,39.8333 51.5,47.1667 51.5,54.5C 50.8337,58.0208 50.1671,61.6875 49.5,65.5C 46.9993,65.4038 44.8327,64.7372 43,63.5C 40.9051,65.929 40.4051,68.5956 41.5,71.5C 39.7221,72.7258 38.7221,74.3925 38.5,76.5C 38.1667,76.5 37.8333,76.5 37.5,76.5C 37.2606,74.5328 37.5939,72.6995 38.5,71C 37.1387,69.4157 36.472,67.5824 36.5,65.5C 38.8193,63.9784 39.1526,61.9784 37.5,59.5C 38.8842,56.6723 39.5509,53.6723 39.5,50.5C 38.9402,45.4762 38.2735,40.4762 37.5,35.5C 38.4345,34.4324 38.7678,33.099 38.5,31.5 Z"/></g>
<g><path style="opacity:1" fill="#ccd0d8" d="M 78.5,45.5 C 78.3801,47.7345 78.7135,49.9011 79.5,52C 79.1412,54.2961 78.1412,56.1295 76.5,57.5C 77.0397,53.3577 77.7063,49.3577 78.5,45.5 Z"/></g>
<g><path style="opacity:1" fill="#595c72" d="M 81.5,45.5 C 81.5,47.5 81.5,49.5 81.5,51.5C 82.791,51.7373 83.791,51.404 84.5,50.5C 84.6317,47.2033 86.2984,45.5367 89.5,45.5C 88.8001,48.0627 87.8001,50.5627 86.5,53C 87.1083,55.5535 87.775,58.0535 88.5,60.5C 88.5,61.5 88.5,62.5 88.5,63.5C 88.1667,63.5 87.8333,63.5 87.5,63.5C 84.1667,64.8333 80.8333,64.8333 77.5,63.5C 76.5655,62.4324 76.2322,61.099 76.5,59.5C 76.5,58.8333 76.5,58.1667 76.5,57.5C 78.1412,56.1295 79.1412,54.2961 79.5,52C 78.7135,49.9011 78.3801,47.7345 78.5,45.5C 79.6522,44.375 80.6522,44.375 81.5,45.5 Z"/></g>
<g><path style="opacity:1" fill="#abadb5" d="M 81.5,45.5 C 81.9724,47.5313 82.9724,49.1979 84.5,50.5C 83.791,51.404 82.791,51.7373 81.5,51.5C 81.5,49.5 81.5,47.5 81.5,45.5 Z"/></g>
<g><path style="opacity:1" fill="#eef5f3" d="M 24.5,65.5 C 24.5,69.1667 24.5,72.8333 24.5,76.5C 23.8365,78.0419 23.1698,79.7086 22.5,81.5C 22.1667,81 21.8333,80.5 21.5,80C 21.1442,76.5642 20.9775,73.0642 21,69.5C 18.8159,70.1081 16.8159,69.4414 15,67.5C 16.3605,63.7503 16.8605,60.2503 16.5,57C 14.9733,55.9681 13.64,54.8014 12.5,53.5C 12.5,47.8333 12.5,42.1667 12.5,36.5C 13.7079,35.7659 15.0413,35.4326 16.5,35.5C 15.6371,30.1985 15.8037,24.8651 17,19.5C 17.3573,24.858 17.8573,29.858 18.5,34.5C 19.4776,34.0233 20.3109,33.3567 21,32.5C 20.7098,27.5929 21.2098,22.5929 22.5,17.5C 23.1667,33.6616 23.8333,49.6616 24.5,65.5 Z"/></g>
<g><path style="opacity:1" fill="#35377c" d="M 32.5,17.5 C 33.6491,17.7911 34.3158,18.6244 34.5,20C 34.9263,21.9843 35.2597,23.9843 35.5,26C 33.2594,45.8054 32.9261,65.6388 34.5,85.5C 33.1667,85.5 31.8333,85.5 30.5,85.5C 28.1667,85.5 25.8333,85.5 23.5,85.5C 25.6074,84.5318 27.9407,84.1984 30.5,84.5C 32.4894,62.525 33.156,40.1917 32.5,17.5 Z"/></g>
<g><path style="opacity:1" fill="#454d95" d="M 31.5,17.5 C 31.8333,17.5 32.1667,17.5 32.5,17.5C 33.156,40.1917 32.4894,62.525 30.5,84.5C 30.5,84.1667 30.5,83.8333 30.5,83.5C 31.4974,61.673 31.8307,39.673 31.5,17.5 Z"/></g>
<g><path style="opacity:1" fill="#8aaed6" d="M 27.5,10.5 C 27.5,25.1667 27.5,39.8333 27.5,54.5C 28.5,54.5 29.5,54.5 30.5,54.5C 30.5,42.1667 30.5,29.8333 30.5,17.5C 30.8333,17.5 31.1667,17.5 31.5,17.5C 31.8307,39.673 31.4974,61.673 30.5,83.5C 29.5,66.1667 28.5,66.1667 27.5,83.5C 26.9684,61.6923 26.6351,39.6923 26.5,17.5C 26.1984,14.9407 26.5318,12.6074 27.5,10.5 Z"/></g>
<g><path style="opacity:1" fill="#cdd9e5" d="M 177.5,11.5 C 176.957,11.56 176.624,11.8933 176.5,12.5C 178.85,13.7739 178.683,15.1073 176,16.5C 175.5,38.1641 175.333,59.8308 175.5,81.5C 176.5,81.5 177.5,81.5 178.5,81.5C 177.713,83.1042 176.38,83.7709 174.5,83.5C 174.5,61.5 174.5,39.5 174.5,17.5C 174.5,15.1667 174.5,12.8333 174.5,10.5C 175.791,10.2627 176.791,10.596 177.5,11.5 Z"/></g>
<g><path style="opacity:1" fill="#e9e9ef" d="M 142.5,66.5 C 141.778,66.9175 141.278,67.5842 141,68.5C 133.579,67.6842 126.079,67.1842 118.5,67C 119.942,66.6232 120.942,65.7899 121.5,64.5C 121.5,63.1667 120.833,62.5 119.5,62.5C 118.164,64.3068 116.497,65.8068 114.5,67C 95.6,67.5224 76.6,68.3557 57.5,69.5C 57.5,67.8333 57.5,66.1667 57.5,64.5C 58.2216,64.9175 58.7216,65.5842 59,66.5C 59.8333,65 61,63.8333 62.5,63C 61.4829,61.9505 61.3162,60.7839 62,59.5C 62.5,60 63,60.5 63.5,61C 66.4816,61.498 69.4816,61.6646 72.5,61.5C 72.6822,66.7937 73.1822,66.7937 74,61.5C 74.3333,62.1667 74.6667,62.8333 75,63.5C 75.21,61.9419 75.71,60.6085 76.5,59.5C 76.2322,61.099 76.5655,62.4324 77.5,63.5C 77.6107,64.1174 77.944,64.6174 78.5,65C 81.1667,65.6667 83.8333,65.6667 86.5,65C 87.056,64.6174 87.3893,64.1174 87.5,63.5C 87.8333,63.5 88.1667,63.5 88.5,63.5C 91.3126,62.5539 92.646,60.5539 92.5,57.5C 91.5,57.5 90.5,57.5 89.5,57.5C 89.7373,58.791 89.404,59.791 88.5,60.5C 87.775,58.0535 87.1083,55.5535 86.5,53C 87.8001,50.5627 88.8001,48.0627 89.5,45.5C 90.7537,47.3569 90.7537,49.3569 89.5,51.5C 89.8457,52.6956 90.3457,52.6956 91,51.5C 91.2492,52.624 91.7492,53.624 92.5,54.5C 93.6956,54.1543 93.6956,53.6543 92.5,53C 96.0267,52.1925 99.3601,52.3592 102.5,53.5C 101.25,53.5774 100.417,54.244 100,55.5C 98.5557,53.8446 96.7224,53.178 94.5,53.5C 94.3631,60.6258 95.0298,60.9592 96.5,54.5C 97.5896,55.3914 97.5896,56.3914 96.5,57.5C 97.7476,59.69 99.4143,60.0234 101.5,58.5C 102.688,59.84 104.188,60.5066 106,60.5C 109.678,60.1695 113.512,60.1695 117.5,60.5C 116.404,53.4436 117.071,53.1103 119.5,59.5C 120.17,57.7086 120.837,56.0419 121.5,54.5C 121.338,56.5273 121.505,58.5273 122,60.5C 122.333,60.1667 122.667,59.8333 123,59.5C 123.5,60.6667 124.333,61.5 125.5,62C 124.833,62.3333 124.167,62.6667 123.5,63C 127.788,62.5181 132.122,61.8515 136.5,61C 137,60.5 137.5,60 138,59.5C 138.113,61.9739 139.113,63.9739 141,65.5C 141.833,49.4896 141.666,33.4896 140.5,17.5C 138.908,19.5619 137.075,19.8952 135,18.5C 134.114,21.0929 132.614,23.0929 130.5,24.5C 132.952,20.0412 134.952,15.3746 136.5,10.5C 138.5,10.5 140.5,10.5 142.5,10.5C 142.5,29.1667 142.5,47.8333 142.5,66.5 Z"/></g>
<g><path style="opacity:1" fill="#abaab4" d="M 121.5,54.5 C 120.837,56.0419 120.17,57.7086 119.5,59.5C 117.071,53.1103 116.404,53.4436 117.5,60.5C 113.512,60.1695 109.678,60.1695 106,60.5C 104.188,60.5066 102.688,59.84 101.5,58.5C 99.4143,60.0234 97.7476,59.69 96.5,57.5C 97.5896,56.3914 97.5896,55.3914 96.5,54.5C 95.0298,60.9592 94.3631,60.6258 94.5,53.5C 96.7224,53.178 98.5557,53.8446 100,55.5C 100.417,54.244 101.25,53.5774 102.5,53.5C 102.435,53.9382 102.601,54.2716 103,54.5C 103.804,53.1955 104.971,52.5288 106.5,52.5C 109.51,53.0114 112.677,53.0114 116,52.5C 118.167,52.8333 120.333,53.1667 122.5,53.5C 122.376,54.1067 122.043,54.44 121.5,54.5 Z"/></g>
<g><path style="opacity:1" fill="#b9b8c0" d="M 88.5,63.5 C 88.5,62.5 88.5,61.5 88.5,60.5C 89.404,59.791 89.7373,58.791 89.5,57.5C 90.5,57.5 91.5,57.5 92.5,57.5C 92.646,60.5539 91.3126,62.5539 88.5,63.5 Z"/></g>
<g><path style="opacity:1" fill="#75757b" d="M 119.5,62.5 C 120.833,62.5 121.5,63.1667 121.5,64.5C 120.167,64.5 119.5,63.8333 119.5,62.5 Z"/></g>
<g><path style="opacity:1" fill="#35354e" d="M 144.5,4.5 C 145.5,4.5 146.5,4.5 147.5,4.5C 147.267,14.8652 147.6,25.1985 148.5,35.5C 148.5,43.8333 148.5,52.1667 148.5,60.5C 148.5,65.5 148.5,70.5 148.5,75.5C 153.378,75.6464 158.044,75.6464 162.5,75.5C 162.833,75.5 163.167,75.5 163.5,75.5C 162.055,80.6947 162.388,85.6947 164.5,90.5C 164.389,91.1174 164.056,91.6174 163.5,92C 158.167,92.6667 152.833,92.6667 147.5,92C 146.29,90.9609 145.29,89.7942 144.5,88.5C 144.5,60.5 144.5,32.5 144.5,4.5 Z"/></g>
<g><path style="opacity:1" fill="#454a6f" d="M 163.5,32.5 C 163.5,46.8333 163.5,61.1667 163.5,75.5C 163.167,75.5 162.833,75.5 162.5,75.5C 161.833,73.1667 161.167,70.8333 160.5,68.5C 160.426,63.6496 160.759,58.6496 161.5,53.5C 162.167,46.5 162.833,39.5 163.5,32.5 Z"/></g>
<g><path style="opacity:1" fill="#849ecd" d="M 168.5,10.5 C 168.833,10.5 169.167,10.5 169.5,10.5C 169.5,25.1667 169.5,39.8333 169.5,54.5C 170.5,54.5 171.5,54.5 172.5,54.5C 172.5,39.8333 172.5,25.1667 172.5,10.5C 173.167,12.8333 173.833,15.1667 174.5,17.5C 174.5,39.5 174.5,61.5 174.5,83.5C 174.167,83.5 173.833,83.5 173.5,83.5C 173.167,83.5 172.833,83.5 172.5,83.5C 172.916,77.0478 172.416,70.7145 171,64.5C 170.057,67.2507 169.224,69.9174 168.5,72.5C 168.5,68.1667 168.5,63.8333 168.5,59.5C 168.5,46.8333 168.5,34.1667 168.5,21.5C 168.5,17.8333 168.5,14.1667 168.5,10.5 Z"/></g>
<g><path style="opacity:1" fill="#b8d8e8" d="M 169.5,10.5 C 170.5,10.5 171.5,10.5 172.5,10.5C 172.5,25.1667 172.5,39.8333 172.5,54.5C 171.5,54.5 170.5,54.5 169.5,54.5C 169.5,39.8333 169.5,25.1667 169.5,10.5 Z"/></g>
<g><path style="opacity:1" fill="#a8a5b4" d="M 77.5,63.5 C 80.8333,64.8333 84.1667,64.8333 87.5,63.5C 87.3893,64.1174 87.056,64.6174 86.5,65C 83.8333,65.6667 81.1667,65.6667 78.5,65C 77.944,64.6174 77.6107,64.1174 77.5,63.5 Z"/></g>
<g><path style="opacity:1" fill="#3b3f72" d="M 167.5,19.5 C 167.328,20.4916 167.662,21.1583 168.5,21.5C 168.5,34.1667 168.5,46.8333 168.5,59.5C 167.833,47.3268 167.167,34.9934 166.5,22.5C 163.91,37.6681 163.91,52.8347 166.5,68C 165.584,73.4847 165.418,78.9847 166,84.5C 167.011,85.3366 168.178,85.67 169.5,85.5C 168.167,87.5 166.5,89.1667 164.5,90.5C 162.388,85.6947 162.055,80.6947 163.5,75.5C 163.5,61.1667 163.5,46.8333 163.5,32.5C 164.482,29.0381 164.815,25.3714 164.5,21.5C 165.5,20.8333 166.5,20.1667 167.5,19.5 Z"/></g>
<g><path style="opacity:1" fill="#3d3f58" d="M 148.5,60.5 C 149.469,62.663 150.302,64.9963 151,67.5C 152,64.3601 154.167,63.0268 157.5,63.5C 157.5,64.5 157.5,65.5 157.5,66.5C 159.179,66.2852 160.179,66.9519 160.5,68.5C 161.167,70.8333 161.833,73.1667 162.5,75.5C 158.044,75.6464 153.378,75.6464 148.5,75.5C 148.5,70.5 148.5,65.5 148.5,60.5 Z"/></g>
<g><path style="opacity:1" fill="#7c8ab8" d="M 25.5,17.5 C 25.8333,17.5 26.1667,17.5 26.5,17.5C 26.6351,39.6923 26.9684,61.6923 27.5,83.5C 28.5,83.5 29.5,83.5 30.5,83.5C 30.5,83.8333 30.5,84.1667 30.5,84.5C 27.9407,84.1984 25.6074,84.5318 23.5,85.5C 18.92,83.9217 15.5866,80.9217 13.5,76.5C 13.3284,75.5084 13.6618,74.8417 14.5,74.5C 16.1884,78.1884 18.855,80.8551 22.5,82.5C 23.209,83.404 24.209,83.7373 25.5,83.5C 25.5,61.5 25.5,39.5 25.5,17.5 Z"/></g>
<g><path style="opacity:1" fill="#3d4058" d="M 51.5,54.5 C 51.6662,60.8421 51.4995,67.1754 51,73.5C 50.2613,74.5742 49.2613,75.2409 48,75.5C 44.8026,74.8327 41.6359,75.166 38.5,76.5C 38.7221,74.3925 39.7221,72.7258 41.5,71.5C 40.4051,68.5956 40.9051,65.929 43,63.5C 44.8327,64.7372 46.9993,65.4038 49.5,65.5C 50.1671,61.6875 50.8337,58.0208 51.5,54.5 Z"/></g>
<g><path style="opacity:1" fill="#d2d0db" d="M 119.5,62.5 C 119.5,63.8333 120.167,64.5 121.5,64.5C 120.942,65.7899 119.942,66.6232 118.5,67C 126.079,67.1842 133.579,67.6842 141,68.5C 141.278,67.5842 141.778,66.9175 142.5,66.5C 142.5,72.1667 142.5,77.8333 142.5,83.5C 142.5,83.8333 142.5,84.1667 142.5,84.5C 138.774,84.8226 135.107,84.4892 131.5,83.5C 129.525,80.3905 127.192,77.5572 124.5,75C 108.167,74.3333 91.8333,74.3333 75.5,75C 73.3056,77.6947 71.3056,80.528 69.5,83.5C 65.5546,84.4909 61.5546,84.8242 57.5,84.5C 57.5,79.5 57.5,74.5 57.5,69.5C 76.6,68.3557 95.6,67.5224 114.5,67C 116.497,65.8068 118.164,64.3068 119.5,62.5 Z"/></g>
<g><path style="opacity:1" fill="#393b6e" d="M 35.5,14.5 C 35.2627,15.791 35.596,16.791 36.5,17.5C 36.5,23.5 36.5,29.5 36.5,35.5C 36.5,45.5 36.5,55.5 36.5,65.5C 36.472,67.5824 37.1387,69.4157 38.5,71C 37.5939,72.6995 37.2606,74.5328 37.5,76.5C 36.4935,80.6831 36.4935,84.8497 37.5,89C 37.3158,90.3756 36.6491,91.2089 35.5,91.5C 33.1097,90.1092 31.4431,88.1092 30.5,85.5C 31.8333,85.5 33.1667,85.5 34.5,85.5C 32.9261,65.6388 33.2594,45.8054 35.5,26C 35.2597,23.9843 34.9263,21.9843 34.5,20C 34.3158,18.6244 33.6491,17.7911 32.5,17.5C 32.1667,17.5 31.8333,17.5 31.5,17.5C 31.5,17.1667 31.5,16.8333 31.5,16.5C 32.2679,15.7375 32.7679,14.7375 33,13.5C 33.6708,14.2524 34.5041,14.5858 35.5,14.5 Z"/></g>
<g><path style="opacity:1" fill="#a7cae3" d="M 172.5,83.5 C 171.167,83.5 169.833,83.5 168.5,83.5C 168.5,79.8333 168.5,76.1667 168.5,72.5C 169.224,69.9174 170.057,67.2507 171,64.5C 172.416,70.7145 172.916,77.0478 172.5,83.5 Z"/></g>
<g><path style="opacity:1" fill="#badce6" d="M 30.5,83.5 C 29.5,83.5 28.5,83.5 27.5,83.5C 28.5,66.1667 29.5,66.1667 30.5,83.5 Z"/></g>
<g><path style="opacity:1" fill="#5b699f" d="M 168.5,72.5 C 168.5,76.1667 168.5,79.8333 168.5,83.5C 169.833,83.5 171.167,83.5 172.5,83.5C 172.833,83.5 173.167,83.5 173.5,83.5C 171.735,84.4614 169.735,84.7947 167.5,84.5C 167.183,80.2984 167.517,76.2984 168.5,72.5 Z"/></g>
<g><path style="opacity:1" fill="#dfe8ef" d="M 12.5,53.5 C 13.64,54.8014 14.9733,55.9681 16.5,57C 16.8605,60.2503 16.3605,63.7503 15,67.5C 16.8159,69.4414 18.8159,70.1081 21,69.5C 20.9775,73.0642 21.1442,76.5642 21.5,80C 21.8333,80.5 22.1667,81 22.5,81.5C 23.1698,79.7086 23.8365,78.0419 24.5,76.5C 24.9746,79.0821 24.3079,81.0821 22.5,82.5C 18.855,80.8551 16.1884,78.1884 14.5,74.5C 12.665,67.6819 11.9984,60.6819 12.5,53.5 Z"/></g>
<g><path style="opacity:1" fill="#424254" d="M 144.5,4.5 C 144.5,32.5 144.5,60.5 144.5,88.5C 143.833,88.5 143.5,88.1667 143.5,87.5C 143.443,86.391 143.11,85.391 142.5,84.5C 142.5,84.1667 142.5,83.8333 142.5,83.5C 143.498,58.3388 143.831,33.0055 143.5,7.5C 143.263,6.20895 143.596,5.20895 144.5,4.5 Z"/></g>
<g><path style="opacity:1" fill="#918f9a" d="M 57.5,10.5 C 57.5,13.8333 57.5,17.1667 57.5,20.5C 57.5,35.1667 57.5,49.8333 57.5,64.5C 57.5,66.1667 57.5,67.8333 57.5,69.5C 57.5,74.5 57.5,79.5 57.5,84.5C 61.5546,84.8242 65.5546,84.4909 69.5,83.5C 71.3056,80.528 73.3056,77.6947 75.5,75C 91.8333,74.3333 108.167,74.3333 124.5,75C 127.192,77.5572 129.525,80.3905 131.5,83.5C 135.107,84.4892 138.774,84.8226 142.5,84.5C 143.11,85.391 143.443,86.391 143.5,87.5C 138.233,85.5202 133.566,86.3535 129.5,90C 110.167,90.6667 90.8333,90.6667 71.5,90C 69.4451,87.0735 66.6118,85.9068 63,86.5C 60.1755,86.3026 57.6755,86.9693 55.5,88.5C 55.6287,86.7839 55.962,85.1172 56.5,83.5C 56.169,58.9943 56.5024,34.6609 57.5,10.5 Z"/></g>
<g><path style="opacity:1" fill="#d3d4db" d="M 129.5,86.5 C 110.167,87.8333 90.8333,87.8333 71.5,86.5C 73.3588,85.1522 75.3588,83.9855 77.5,83C 93.5,82.3333 109.5,82.3333 125.5,83C 125.833,84 126.167,85 126.5,86C 127.448,86.4828 128.448,86.6495 129.5,86.5 Z"/></g>
<g><path style="opacity:1" fill="#e7e6ee" d="M 129.5,86.5 C 128.448,86.6495 127.448,86.4828 126.5,86C 126.167,85 125.833,84 125.5,83C 109.5,82.3333 93.5,82.3333 77.5,83C 75.3588,83.9855 73.3588,85.1522 71.5,86.5C 72.4836,83.0352 74.1503,79.8685 76.5,77C 92.1667,76.3333 107.833,76.3333 123.5,77C 126.021,79.2198 128.188,81.7198 130,84.5C 130.692,85.4368 130.525,86.1034 129.5,86.5 Z"/></g>
</svg>
